<svg width="143" height="92" viewBox="0 0 143 92" fill="none" xmlns="http://www.w3.org/2000/svg">
<g filter="url(#filter0_d_537_3695)">
<path d="M16.1052 23.6062H14.8181V22.2272H22.0296L30.4337 43.9278L38.9324 22.2272H46.144V23.6062H44.7433C44.0997 23.6062 43.6896 23.785 43.513 24.1425C43.3489 24.4873 43.2669 25.2087 43.2669 26.3068V44.3108C43.2669 45.4089 43.3489 46.1368 43.513 46.4943C43.6896 46.8391 44.0997 47.0114 44.7433 47.0114H46.144V48.3905H36.4528V47.0114H37.7778C38.2068 47.0114 38.5286 46.9348 38.7431 46.7816C38.9576 46.6156 39.0901 46.3475 39.1406 45.9772C39.2037 45.5941 39.2352 45.0387 39.2352 44.3108V26.1153L30.6797 48.3905H27.6891L19.0769 26.1153V44.3108C19.0769 45.4089 19.1589 46.1368 19.3229 46.4943C19.4996 46.8391 19.9097 47.0114 20.5532 47.0114H22.0296V48.3905H14.8181V47.0114H16.1052C16.7487 47.0114 17.1525 46.8391 17.3166 46.4943C17.4932 46.1368 17.5815 45.4089 17.5815 44.3108V26.3068C17.5815 25.196 17.4995 24.4681 17.3355 24.1234C17.1714 23.7786 16.7613 23.6062 16.1052 23.6062Z" fill="white"/>
<path d="M59.2989 48.3905V45.958C58.6554 46.5965 57.955 47.1519 57.1979 47.6243C56.4534 48.0968 55.6837 48.4607 54.8887 48.7161C54.1063 48.9715 53.3682 49.0992 52.6741 49.0992C51.3113 49.0992 50.2513 48.6522 49.4942 47.7584C48.7497 46.8646 48.3775 45.6388 48.3775 44.081C48.3775 42.753 48.592 41.6932 49.021 40.9016C49.45 40.1099 50.0873 39.5098 50.9327 39.1012C51.7782 38.6798 52.9265 38.3223 54.3776 38.0286L59.2989 37.0135V34.7342C59.2989 33.917 59.2232 33.2786 59.0718 32.8189C58.933 32.3465 58.5986 31.9379 58.0686 31.5931C57.3998 31.159 56.5733 30.9419 55.589 30.9419C54.6048 30.9419 53.8098 31.0824 53.2041 31.3633C52.5984 31.6442 52.1504 32.0911 51.8602 32.704C51.5826 33.3041 51.4438 34.0766 51.4438 35.0215V35.96H49.3049V31.0185C50.2135 30.5972 51.2671 30.2588 52.4659 30.0034C53.6647 29.7353 54.8067 29.6012 55.8919 29.6012C57.2421 29.6012 58.3652 29.6906 59.2611 29.8693C60.157 30.0353 60.9078 30.3673 61.5135 30.8653C62.2202 31.4527 62.6555 32.1039 62.8195 32.8189C62.9836 33.534 63.0656 34.581 63.0656 35.96V44.081C63.0656 44.4002 63.0593 44.6492 63.0467 44.828C63.0467 45.0067 63.0404 45.1983 63.0278 45.4026C63.0278 46.0155 63.1224 46.4751 63.3117 46.7816C63.501 47.0753 63.8858 47.2221 64.4663 47.2221H65.583V48.3905H59.2989ZM59.2989 44.081V38.3925L56.5544 39.0629C55.3935 39.3565 54.5101 39.6502 53.9044 39.9439C53.3114 40.2376 52.8571 40.659 52.5416 41.208C52.2388 41.7571 52.0874 42.5296 52.0874 43.5256C52.0874 44.6875 52.2829 45.5558 52.6741 46.1304C53.0653 46.6922 53.7152 46.9731 54.6237 46.9731C55.5953 46.9731 56.7563 46.3602 58.1065 45.1344L59.2989 44.081Z" fill="white"/>
<path d="M73.1353 30.3099V31.957C73.8041 31.242 74.6243 30.6802 75.596 30.2716C76.5676 29.8502 77.5834 29.6395 78.6434 29.6395C83.0095 29.6395 85.1925 32.7232 85.1925 38.8905C85.1925 40.4866 85.0978 41.8784 84.9086 43.0659C84.7193 44.2406 84.4164 45.2047 84 45.958C83.4448 46.9795 82.7066 47.7712 81.7854 48.333C80.8643 48.8948 79.8169 49.1758 78.6434 49.1758C77.5834 49.1758 76.6118 48.997 75.7285 48.6395C74.8578 48.2819 73.9934 47.7265 73.1353 46.9731V53.6002C73.1353 54.2642 73.23 54.7366 73.4193 55.0175C73.6085 55.3112 73.9934 55.4581 74.5739 55.4581H75.7095V56.6264H66.7944V55.4581H67.9491C68.5421 55.4581 68.927 55.3112 69.1037 55.0175C69.2929 54.7366 69.3876 54.2642 69.3876 53.6002V33.3361C69.3876 32.6593 69.2992 32.1805 69.1226 31.8996C68.9459 31.6187 68.5547 31.4782 67.9491 31.4782H66.7944V30.3099H73.1353ZM73.1353 33.834V45.0961C73.741 45.8622 74.3972 46.4241 75.1038 46.7816C75.8231 47.1264 76.6433 47.2987 77.5645 47.2987C78.2585 47.2987 78.8768 47.1008 79.4194 46.705C79.9747 46.3092 80.3785 45.7601 80.6308 45.0578C80.8327 44.5471 80.9778 43.7554 81.0662 42.6828C81.1545 41.6102 81.1987 40.1929 81.1987 38.4308C81.1987 35.9026 80.94 34.1022 80.4226 33.0296C79.9179 31.9443 78.8768 31.4016 77.2995 31.4016C75.8483 31.4016 74.4603 32.2124 73.1353 33.834Z" fill="white"/>
<path d="M105.054 31.0441V33.4382C105.748 32.7615 106.449 32.206 107.155 31.7719C107.862 31.325 108.594 30.9866 109.351 30.7568C110.121 30.5269 110.909 30.412 111.717 30.412C113.181 30.412 114.304 30.827 115.086 31.657C115.869 32.4742 116.26 33.7064 116.26 35.3535V44.8152C116.26 45.16 116.253 45.4281 116.241 45.6196C116.241 45.7984 116.234 45.9963 116.222 46.2134C116.222 46.8263 116.316 47.2732 116.506 47.5541C116.695 47.8223 117.074 47.9563 117.641 47.9563H128.071V49.1247H112.493V35.3535C112.493 34.3831 112.304 33.6617 111.925 33.1892C111.559 32.704 110.935 32.4614 110.051 32.4614C109.168 32.4614 108.392 32.6848 107.723 33.1318C107.054 33.5659 106.165 34.3065 105.054 35.3535V44.8152C105.054 45.16 105.048 45.4281 105.035 45.6196C105.035 45.7984 105.029 45.9963 105.016 46.2134C105.016 46.8135 105.105 47.254 105.281 47.535C105.471 47.8159 105.862 47.9563 106.455 47.9563H107.647V49.1247H98.7323V47.9563H99.8491C100.442 47.9563 100.827 47.8159 101.004 47.535C101.193 47.2413 101.288 46.7624 101.288 46.0985V34.0703C101.288 33.3935 101.199 32.9147 101.023 32.6338C100.846 32.3529 100.455 32.2124 99.8491 32.2124H98.7323V31.0441H105.054Z" fill="white"/>
</g>
<path d="M87.8503 31.0384H93.9527V44.8954C93.9527 45.2411 93.9466 45.51 93.9346 45.7021C93.9346 45.8814 93.9286 46.0799 93.9165 46.2976C93.9165 46.8995 94.0008 47.3413 94.1693 47.623C94.3499 47.9047 94.723 48.0456 95.2887 48.0456H96.3178V49.2173H87.8503V48.0456H88.9697C89.5113 48.0456 89.8724 47.9111 90.0529 47.6422C90.2335 47.3733 90.3237 46.9251 90.3237 46.2976C90.3237 46.0287 90.3177 45.7918 90.3057 45.5869C90.3057 45.382 90.2997 45.1515 90.2876 44.8954V35.4063C90.2997 35.1502 90.3057 34.9197 90.3057 34.7148C90.3177 34.5099 90.3237 34.2666 90.3237 33.9848C90.3237 33.3702 90.2335 32.9284 90.0529 32.6594C89.8844 32.3905 89.5233 32.2561 88.9697 32.2561H87.8503V31.0384ZM91.9486 23.2856C92.5504 23.2856 93.0499 23.4841 93.4471 23.8811C93.8564 24.2781 94.061 24.7775 94.061 25.3794C94.061 25.8788 93.8684 26.3398 93.4832 26.7624C93.1101 27.1722 92.6166 27.3771 92.0028 27.3771C91.4491 27.3771 90.9737 27.1786 90.5765 26.7816C90.1913 26.3846 89.9987 25.8788 89.9987 25.2641C89.9987 24.7391 90.1913 24.2781 90.5765 23.8811C90.9616 23.4841 91.419 23.2856 91.9486 23.2856Z" fill="white"/>
<g filter="url(#filter1_d_537_3695)">
<path d="M93.2514 54.8826V58.3926H92.3964V56.2876L91.6114 58.3926H90.9214L90.1314 56.2826V58.3926H89.2764V54.8826H90.2864L91.2714 57.3126L92.2464 54.8826H93.2514ZM96.0513 57.7726H94.7413L94.5313 58.3926H93.6363L94.9063 54.8826H95.8963L97.1663 58.3926H96.2613L96.0513 57.7726ZM95.8313 57.1126L95.3963 55.8276L94.9663 57.1126H95.8313ZM100.078 54.8826V55.5676H99.1478V58.3926H98.2928V55.5676H97.3628V54.8826H100.078ZM101.362 55.5676V56.2776H102.507V56.9376H101.362V57.7076H102.657V58.3926H100.507V54.8826H102.657V55.5676H101.362ZM105.002 58.3926L104.272 57.0676H104.067V58.3926H103.212V54.8826H104.647C104.924 54.8826 105.159 54.931 105.352 55.0276C105.549 55.1243 105.695 55.2576 105.792 55.4276C105.889 55.5943 105.937 55.781 105.937 55.9876C105.937 56.221 105.87 56.4293 105.737 56.6126C105.607 56.796 105.414 56.926 105.157 57.0026L105.967 58.3926H105.002ZM104.067 56.4626H104.597C104.754 56.4626 104.87 56.4243 104.947 56.3476C105.027 56.271 105.067 56.1626 105.067 56.0226C105.067 55.8893 105.027 55.7843 104.947 55.7076C104.87 55.631 104.754 55.5926 104.597 55.5926H104.067V56.4626ZM107.329 54.8826V58.3926H106.474V54.8826H107.329ZM111.683 56.0126C111.683 56.216 111.636 56.4026 111.543 56.5726C111.45 56.7393 111.306 56.8743 111.113 56.9776C110.92 57.081 110.68 57.1326 110.393 57.1326H109.863V58.3926H109.008V54.8826H110.393C110.673 54.8826 110.91 54.931 111.103 55.0276C111.296 55.1243 111.441 55.2576 111.538 55.4276C111.635 55.5976 111.683 55.7926 111.683 56.0126ZM110.328 56.4526C110.491 56.4526 110.613 56.4143 110.693 56.3376C110.773 56.261 110.813 56.1526 110.813 56.0126C110.813 55.8726 110.773 55.7643 110.693 55.6876C110.613 55.611 110.491 55.5726 110.328 55.5726H109.863V56.4526H110.328ZM112.983 54.8826V58.3926H112.128V54.8826H112.983ZM116.743 58.3926H115.888L114.458 56.2276V58.3926H113.603V54.8826H114.458L115.888 57.0576V54.8826H116.743V58.3926ZM119.887 54.8826V55.5676H118.957V58.3926H118.102V55.5676H117.172V54.8826H119.887ZM122.501 57.7726H121.191L120.981 58.3926H120.086L121.356 54.8826H122.346L123.616 58.3926H122.711L122.501 57.7726ZM122.281 57.1126L121.846 55.8276L121.416 57.1126H122.281ZM125.793 58.3926L125.063 57.0676H124.858V58.3926H124.003V54.8826H125.438C125.715 54.8826 125.95 54.931 126.143 55.0276C126.34 55.1243 126.486 55.2576 126.583 55.4276C126.68 55.5943 126.728 55.781 126.728 55.9876C126.728 56.221 126.661 56.4293 126.528 56.6126C126.398 56.796 126.205 56.926 125.948 57.0026L126.758 58.3926H125.793ZM124.858 56.4626H125.388C125.545 56.4626 125.661 56.4243 125.738 56.3476C125.818 56.271 125.858 56.1626 125.858 56.0226C125.858 55.8893 125.818 55.7843 125.738 55.7076C125.661 55.631 125.545 55.5926 125.388 55.5926H124.858V56.4626Z" fill="white"/>
</g>
<path d="M91.0256 29.6362C91.0256 29.9273 91.3828 30.1654 91.8194 30.1654C92.256 30.1654 92.6132 29.9273 92.6132 29.6362H91.0256Z" fill="#616466"/>
<path d="M90.7861 28.0486H92.8381C92.9546 27.4055 93.3475 26.7773 93.755 26.1193C94.2353 25.3565 94.7301 24.5638 94.7301 23.801C94.7301 22.3503 93.4203 21.1688 91.8194 21.1688C90.2185 21.1688 88.9087 22.3503 88.9087 23.801C88.9087 24.5638 89.4035 25.3565 89.8692 26.1193C90.2767 26.7773 90.6697 27.4055 90.7861 28.0486Z" fill="#FFCE31"/>
<path d="M90.9277 25.9558C90.9435 26.0424 90.9753 26.129 90.9911 26.2156C91.0387 26.3743 91.0704 26.5186 91.118 26.6774C91.2608 27.2259 91.3877 27.6877 91.4987 28.0486H91.5939C91.5146 27.6877 91.4036 27.2114 91.2608 26.663C91.2291 26.5186 91.1815 26.3599 91.1498 26.2011C91.1339 26.129 91.118 26.0424 91.0863 25.9702C91.2132 25.9413 91.5146 25.8547 91.816 25.5516C92.1174 25.8547 92.4188 25.9413 92.5457 25.9702C92.5298 26.0568 92.514 26.129 92.4823 26.2011C92.4505 26.3599 92.4029 26.5186 92.3712 26.663C92.2284 27.2114 92.1174 27.6877 92.0381 28.0486H92.1333C92.2284 27.6877 92.3712 27.2259 92.514 26.6774C92.5457 26.5331 92.5933 26.3743 92.6409 26.2156C92.6568 26.129 92.6885 26.0424 92.7043 25.9558C92.8312 25.9413 92.9423 25.9125 93.0216 25.8403C93.1168 25.7537 93.1644 25.6527 93.1326 25.5372C93.1168 25.4795 93.0851 25.4073 92.9899 25.3929C92.9423 25.3784 92.9106 25.3784 92.863 25.3929C92.8154 25.4073 92.7837 25.4362 92.7678 25.4506C92.6885 25.5372 92.6568 25.6238 92.625 25.7104L92.5774 25.8403C92.5774 25.8403 92.4505 25.8547 92.1491 25.6671C91.9905 25.5661 91.9429 25.4939 91.8953 25.4506C91.9429 25.3929 91.9905 25.3496 92.0381 25.2774C92.054 25.2341 92.0698 25.2052 92.0857 25.1475C92.0857 25.1042 92.0857 25.0465 92.054 25.0032C92.0222 24.9599 91.9905 24.9166 91.9112 24.8877C91.8795 24.8733 91.8477 24.8733 91.816 24.8733C91.7843 24.8733 91.7526 24.8733 91.7208 24.8877C91.6574 24.9166 91.6098 24.9599 91.5781 25.0032C91.5463 25.0465 91.5463 25.1042 91.5463 25.1475C91.5463 25.1908 91.5622 25.2341 91.5939 25.2774C91.6257 25.3496 91.6732 25.4073 91.7367 25.4506C91.6891 25.4939 91.6415 25.5661 91.4829 25.6671C91.1974 25.8403 91.0546 25.8403 91.0546 25.8403L91.007 25.7104C90.9753 25.6238 90.9435 25.5372 90.8642 25.4506C90.8484 25.4362 90.8166 25.4073 90.769 25.3929C90.7215 25.3784 90.6739 25.3784 90.6421 25.3929C90.547 25.4217 90.5152 25.4939 90.4994 25.5372C90.4835 25.6527 90.5311 25.7537 90.6104 25.8403C90.7056 25.9125 90.8166 25.9413 90.9277 25.9558ZM92.7678 25.7393C92.7995 25.6671 92.8312 25.5805 92.8947 25.5372C92.9106 25.5228 92.9264 25.5228 92.9264 25.5228H92.9581C92.974 25.5228 92.9899 25.5372 93.0057 25.5805C93.0216 25.6382 92.9899 25.7248 92.9264 25.7681C92.8788 25.797 92.8154 25.8259 92.7519 25.8403C92.7519 25.797 92.7519 25.7681 92.7678 25.7393ZM91.7208 25.0465C91.7526 25.0176 91.7843 24.9887 91.816 24.9887C91.8477 24.9887 91.8795 25.0032 91.9112 25.0465C91.9429 25.0898 91.9271 25.1475 91.8953 25.2052C91.8795 25.2485 91.8477 25.2918 91.816 25.3207C91.7843 25.2774 91.7526 25.2485 91.7367 25.2052C91.705 25.1619 91.6891 25.1042 91.7208 25.0465ZM90.6421 25.5516C90.6421 25.5228 90.658 25.5083 90.6897 25.4939H90.7215C90.7215 25.4939 90.7373 25.5083 90.7532 25.5083C90.8008 25.5516 90.8484 25.6382 90.8801 25.7104C90.896 25.7393 90.896 25.7681 90.9118 25.797C90.8484 25.7826 90.7849 25.7681 90.7373 25.7248C90.6739 25.696 90.6421 25.6238 90.6421 25.5516Z" fill="#C79127"/>
<path d="M92.6132 29.107L91.0256 29.4567V29.6362L92.6132 29.2866V29.107Z" fill="#94989B"/>
<path opacity="0.35" d="M31.5719 1.19214C32.0618 0.592011 32.8541 0.328706 33.6057 0.516288L141.342 27.4052C142.25 27.6317 142.879 28.4568 142.858 29.3918L141.669 80.9559C141.638 82.2834 140.346 83.213 139.078 82.8203L2.90816 40.6599C1.55345 40.2404 1.05354 38.5834 1.95026 37.4847L31.5719 1.19214Z" fill="#888888"/>
<path opacity="0.35" d="M14.2699 25.8905C14.533 24.6871 15.505 23.7669 16.721 23.5699L116.26 7.44979C117.822 7.19685 119.311 8.20038 119.664 9.74283L134.715 75.6007C135.12 77.3723 133.869 79.0941 132.059 79.257L4.07346 90.779C2.05496 90.9607 0.440775 89.1301 0.87373 87.1502L14.2699 25.8905Z" fill="#888888"/>
<defs>
<filter id="filter0_d_537_3695" x="12.8181" y="20.2272" width="121.253" height="42.3992" filterUnits="userSpaceOnUse" color-interpolation-filters="sRGB">
<feFlood flood-opacity="0" result="BackgroundImageFix"/>
<feColorMatrix in="SourceAlpha" type="matrix" values="0 0 0 0 0 0 0 0 0 0 0 0 0 0 0 0 0 0 127 0" result="hardAlpha"/>
<feOffset dx="2" dy="2"/>
<feGaussianBlur stdDeviation="2"/>
<feComposite in2="hardAlpha" operator="out"/>
<feColorMatrix type="matrix" values="0 0 0 0 0 0 0 0 0 0 0 0 0 0 0 0 0 0 0.25 0"/>
<feBlend mode="normal" in2="BackgroundImageFix" result="effect1_dropShadow_537_3695"/>
<feBlend mode="normal" in="SourceGraphic" in2="effect1_dropShadow_537_3695" result="shape"/>
</filter>
<filter id="filter1_d_537_3695" x="87.2764" y="52.8826" width="45.4816" height="11.51" filterUnits="userSpaceOnUse" color-interpolation-filters="sRGB">
<feFlood flood-opacity="0" result="BackgroundImageFix"/>
<feColorMatrix in="SourceAlpha" type="matrix" values="0 0 0 0 0 0 0 0 0 0 0 0 0 0 0 0 0 0 127 0" result="hardAlpha"/>
<feOffset dx="2" dy="2"/>
<feGaussianBlur stdDeviation="2"/>
<feComposite in2="hardAlpha" operator="out"/>
<feColorMatrix type="matrix" values="0 0 0 0 0 0 0 0 0 0 0 0 0 0 0 0 0 0 0.25 0"/>
<feBlend mode="normal" in2="BackgroundImageFix" result="effect1_dropShadow_537_3695"/>
<feBlend mode="normal" in="SourceGraphic" in2="effect1_dropShadow_537_3695" result="shape"/>
</filter>
</defs>
</svg>
